# xmcd CD database file
#
# Track frame offsets:
#	150
#	19782
#	37167
#	48530
#	63275
#	75480
#	90967
#	105145
#	120385
#	136617
#	151190
#	167434
#	185582
#	201497
#	225212
#	245692
#	263567
#	282697
#
# Disc length: 3948 seconds
#
# Revision: 0
# Processed by: cddbd v1.5PL3 Copyright (c) Steve Scherf et al.
# Submitted via: CDex 1.50
#
DISCID=de0f6a12
DTITLE=Corl Doy - Piano by Candlelight - Disk 1
DYEAR=1995
DGENRE=New Age
TTITLE0=The Shadow Of Your Smile
TTITLE1=Hero
TTITLE2=Theme from Schindler's List
TTITLE3=Summertime
TTITLE4=Here, There and Everwhere
TTITLE5=The circle of Life
TTITLE6=Stormy Weather
TTITLE7=Feel Like Makin Love
TTITLE8=If Ever I Would Leave You
TTITLE9=Love is All Around
TTITLE10=Places That Belong To You
TTITLE11=Night and Day
TTITLE12=Misty
TTITLE13=Quiet Nights Of Quiet Starts
TTITLE14=Medley-Where Do I Begin
TTITLE15=Moonlight Piano
TTITLE16=I Don't Know HOw To Love Him
TTITLE17=She's Out Of My Life
EXTD=YEAR: 1995
EXTT0=
EXTT1=
EXTT2=
EXTT3=
EXTT4=
EXTT5=
EXTT6=
EXTT7=
EXTT8=
EXTT9=
EXTT10=
EXTT11=
EXTT12=
EXTT13=
EXTT14=
EXTT15=
EXTT16=
EXTT17=
PLAYORDER=
